<?xml version="1.0" encoding="utf-8"?><!-- Uploaded to: SVG Repo, www.svgrepo.com, Generator: SVG Repo Mixer Tools -->
<svg version="1.1" id="Uploaded to svgrepo.com" xmlns="http://www.w3.org/2000/svg" xmlns:xlink="http://www.w3.org/1999/xlink" 
	 width="50px" height="50px" viewBox="0 0 32 32" xml:space="preserve">
<style type="text/css">
	.feather_een{fill:#0B1719;}
</style>
<path class="feather_een" d="M26.121,8.122l-5.243-5.243C20.316,2.316,19.553,2,18.757,2H8C6.343,2,5,3.343,5,5v22
	c0,1.657,1.343,3,3,3h16c1.657,0,3-1.343,3-3V10.243C27,9.447,26.684,8.684,26.121,8.122z M20,3.445
	c0.058,0.046,0.118,0.088,0.172,0.141l5.243,5.243C25.467,8.882,25.509,8.942,25.555,9H22c-1.103,0-2-0.897-2-2V3.445z M26,27
	c0,1.103-0.897,2-2,2H8c-1.103,0-2-0.897-2-2V5c0-1.103,0.897-2,2-2h10.757C18.84,3,18.919,3.014,19,3.024V7c0,1.654,1.346,3,3,3
	h3.976C25.986,10.081,26,10.16,26,10.243V27z M20,14h-2v-2c0-0.552-0.448-1-1-1h-2c-0.552,0-1,0.448-1,1v2h-2c-0.552,0-1,0.448-1,1
	v2c0,0.552,0.448,1,1,1h2v2c0,0.552,0.448,1,1,1h2c0.552,0,1-0.448,1-1v-2h2c0.552,0,1-0.448,1-1v-2C21,14.448,20.552,14,20,14z
	 M20,17h-3v3h-2v-3h-3v-2h3v-3h2v3h3V17z"/>
</svg>