<svg width="54" height="54" viewBox="0 0 54 54" fill="none" xmlns="http://www.w3.org/2000/svg">
<path d="M24.3335 50.5904C24.3335 52.1675 22.9665 53.4109 21.4241 53.0827C10.2184 50.6989 1.6162 41.2765 0.464757 29.6629C0.31945 28.1973 1.52737 27 3.00012 27H11.0001C12.4729 27 13.6668 28.1939 13.6668 29.6667C13.6668 34.0851 17.2485 37.6667 21.6668 37.6667C23.1396 37.6667 24.3335 38.8605 24.3335 40.3333V50.5904Z" fill="black"/>
<path d="M40.3333 45.4757C40.3333 47.5296 42.5413 48.769 44.1154 47.4501C46.225 45.6826 48.057 43.5949 49.5365 41.2616C50.5661 39.6381 49.2951 37.6666 47.3725 37.6666H42.9999C41.5271 37.6666 40.3333 38.8605 40.3333 40.3333V45.4757Z" fill="black"/>
<path d="M27 0.333374C33.8053 0.333374 40.0152 2.88252 44.7267 7.07801C46.3685 8.53993 45.1955 11 42.9971 11H42.6109C38.4075 11 35 14.4076 35 18.611C35 19.4737 34.5125 20.2623 33.7411 20.6481L33.5259 20.7557C32.7752 21.131 31.8915 21.131 31.1408 20.7557L30.9256 20.6481C30.1541 20.2623 29.6667 19.4737 29.6667 18.611C29.6667 14.4076 26.2592 11 22.0557 11H21.6667C20.1939 11 19 9.80612 19 8.33337V3.51172C19 2.34679 19.7534 1.30319 20.8876 1.03719C22.8504 0.576868 24.8968 0.333374 27 0.333374Z" fill="black"/>
<path d="M4.12954 21.6666C2.44362 21.6666 1.17535 20.1155 1.7113 18.5171C3.31282 13.7406 6.22967 9.56745 10.0316 6.42785C11.5498 5.17409 13.6671 6.36419 13.6671 8.33323C13.6671 12.7515 17.2488 16.3332 21.6672 16.3332H22.0563C23.3141 16.3332 24.3339 17.3529 24.3339 18.6108C24.3339 21.4936 25.9624 24.1291 28.5411 25.4182L28.756 25.5259C31.0083 26.652 33.6592 26.652 35.9115 25.5259L36.1267 25.4182C38.7051 24.1291 40.3339 21.4936 40.3339 18.6108C40.3339 17.3529 41.3536 16.3332 42.6115 16.3332H49.7032C50.7632 16.3332 51.7341 16.9569 52.0936 17.9541C53.112 20.7785 53.6672 23.8243 53.6672 26.9998C53.6672 28.0766 53.6032 29.1384 53.4792 30.1816C53.3296 31.4411 52.2221 32.3331 50.9539 32.3331H43.0005C38.5821 32.3331 35.0005 35.915 35.0005 40.3331V50.4883C35.0005 51.6531 34.2469 52.6968 33.1128 52.9627C32.9344 53.0046 32.7552 53.0446 32.5752 53.083C31.0328 53.411 29.6672 52.1672 29.6672 50.5904V40.3331C29.6672 35.915 26.0853 32.3331 21.6672 32.3331C20.1943 32.3331 19.0004 31.1392 19.0004 29.6664C19.0004 25.2483 15.4187 21.6666 11.0004 21.6666H4.12954Z" fill="black"/>
</svg>
