<svg width="48" height="53" viewBox="0 0 48 53" fill="none" xmlns="http://www.w3.org/2000/svg">
<path d="M44 19.875H40V13.25C40 5.93269 32.836 0 24 0C15.164 0 8 5.93269 8 13.25V19.875H4C1.789 19.875 0 21.3565 0 23.1875V49.6875C0 51.5185 1.789 53 4 53H44C46.211 53 48 51.5185 48 49.6875V23.1875C48 21.3565 46.211 19.875 44 19.875ZM24 39.75C21.789 39.75 20 38.2685 20 36.4375C20 34.6065 21.789 33.125 24 33.125C26.211 33.125 28 34.6065 28 36.4375C28 38.2685 26.211 39.75 24 39.75ZM32 19.875H16V13.25C16 9.59134 19.582 6.625 24 6.625C28.418 6.625 32 9.59134 32 13.25V19.875Z" fill="black"/>
</svg>
