<svg width="64" height="64" viewBox="0 0 64 64" fill="none" xmlns="http://www.w3.org/2000/svg">
<path d="M1.16702 60.0049L3.99506 62.833C5.55109 64.389 8.09513 64.389 9.65115 62.833L24.3514 48.1328C28.3194 50.5848 32.9955 52.0008 37.9996 52.0008C52.3598 52.0008 64 40.3606 64 26.0004C64 11.6402 52.3598 0 37.9996 0C23.6394 0 11.9992 11.6402 11.9992 26.0004C11.9992 31.0045 13.4152 35.6806 15.8672 39.6486L1.16702 54.3488C-0.389006 55.9049 -0.389006 58.4489 1.16702 60.0049ZM37.9996 44.0007C33.1915 44.0007 28.6714 42.1287 25.2714 38.7286C21.8713 35.3286 19.9993 30.8085 19.9993 26.0004C19.9993 21.1923 21.8713 16.6723 25.2714 13.2722C28.6714 9.87215 33.1915 8.00012 37.9996 8.00012C42.8077 8.00012 47.3277 9.87215 50.7278 13.2722C54.1278 16.6723 55.9999 21.1923 55.9999 26.0004C55.9999 30.8085 54.1278 35.3286 50.7278 38.7286C47.3277 42.1287 42.8077 44.0007 37.9996 44.0007Z" fill="black"/>
</svg>
